<?xml version="1.0" encoding="UTF-8"?>
<svg xmlns="http://www.w3.org/2000/svg" xmlns:xlink="http://www.w3.org/1999/xlink" width="20pt" height="22pt" viewBox="0 0 20 22" version="1.1">
<g id="surface1">
<path style=" stroke:none;fill-rule:nonzero;fill:rgb(0%,0%,0%);fill-opacity:1;" d="M 13.269531 10.449219 C 13.269531 11.121094 12.753906 11.671875 12.101562 11.671875 C 11.460938 11.671875 10.9375 11.121094 10.9375 10.449219 C 10.9375 9.777344 11.453125 9.230469 12.101562 9.230469 C 12.753906 9.230469 13.269531 9.777344 13.269531 10.449219 Z M 7.929688 9.230469 C 7.28125 9.230469 6.765625 9.777344 6.765625 10.449219 C 6.765625 11.121094 7.292969 11.671875 7.929688 11.671875 C 8.582031 11.671875 9.097656 11.121094 9.097656 10.449219 C 9.109375 9.777344 8.582031 9.230469 7.929688 9.230469 Z M 20 2.265625 L 20 22 C 17.121094 19.550781 18.042969 20.363281 14.695312 17.367188 L 15.304688 19.402344 L 2.34375 19.402344 C 1.050781 19.402344 0 18.390625 0 17.136719 L 0 2.265625 C 0 1.011719 1.050781 0 2.34375 0 L 17.65625 0 C 18.949219 0 20 1.011719 20 2.265625 Z M 16.742188 12.695312 C 16.742188 9.152344 15.097656 6.28125 15.097656 6.28125 C 13.453125 5.09375 11.886719 5.125 11.886719 5.125 L 11.726562 5.300781 C 13.667969 5.875 14.570312 6.699219 14.570312 6.699219 C 11.855469 5.265625 8.667969 5.265625 6.035156 6.378906 C 5.613281 6.566406 5.359375 6.699219 5.359375 6.699219 C 5.359375 6.699219 6.308594 5.828125 8.367188 5.257812 L 8.25 5.125 C 8.25 5.125 6.6875 5.09375 5.039062 6.28125 C 5.039062 6.28125 3.394531 9.152344 3.394531 12.695312 C 3.394531 12.695312 4.355469 14.289062 6.878906 14.367188 C 6.878906 14.367188 7.304688 13.871094 7.644531 13.453125 C 6.195312 13.035156 5.644531 12.15625 5.644531 12.15625 C 5.8125 12.269531 6.089844 12.414062 6.113281 12.429688 C 8.042969 13.46875 10.785156 13.808594 13.246094 12.816406 C 13.644531 12.671875 14.089844 12.464844 14.558594 12.164062 C 14.558594 12.164062 13.988281 13.066406 12.492188 13.476562 C 12.835938 13.894531 13.246094 14.367188 13.246094 14.367188 C 15.769531 14.289062 16.742188 12.695312 16.742188 12.695312 Z M 16.742188 12.695312 "/>
</g>
</svg>
