<?xml version="1.0" encoding="UTF-8"?>
<svg xmlns="http://www.w3.org/2000/svg" xmlns:xlink="http://www.w3.org/1999/xlink" width="20pt" height="20pt" viewBox="0 0 20 20" version="1.1">
<g id="surface1">
<path style=" stroke:none;fill-rule:nonzero;fill:rgb(0%,0%,0%);fill-opacity:1;" d="M 10 0.3125 C 4.476562 0.3125 0 4.648438 0 10 C 0 15.351562 4.476562 19.6875 10 19.6875 C 15.523438 19.6875 20 15.351562 20 10 C 20 4.648438 15.523438 0.3125 10 0.3125 Z M 14.910156 6.949219 L 13.269531 14.441406 C 13.148438 14.972656 12.824219 15.101562 12.367188 14.851562 L 9.867188 13.066406 L 8.660156 14.191406 C 8.527344 14.320312 8.414062 14.429688 8.15625 14.429688 L 8.335938 11.964844 L 12.96875 7.910156 C 13.167969 7.738281 12.921875 7.640625 12.65625 7.8125 L 6.929688 11.304688 L 4.464844 10.558594 C 3.925781 10.394531 3.914062 10.039062 4.578125 9.789062 L 14.21875 6.1875 C 14.664062 6.03125 15.054688 6.292969 14.910156 6.949219 Z M 14.910156 6.949219 "/>
</g>
</svg>
