<?xml version="1.0" encoding="UTF-8"?>
<svg xmlns="http://www.w3.org/2000/svg" xmlns:xlink="http://www.w3.org/1999/xlink" width="20pt" height="18pt" viewBox="0 0 20 18" version="1.1">
<g id="surface1">
<path style=" stroke:none;fill-rule:nonzero;fill:rgb(0%,0%,0%);fill-opacity:1;" d="M 18.921875 4.136719 C 19.050781 3.699219 18.921875 3.375 18.304688 3.375 L 16.261719 3.375 C 15.738281 3.375 15.5 3.652344 15.371094 3.960938 C 15.371094 3.960938 14.328125 6.53125 12.859375 8.199219 C 12.382812 8.679688 12.164062 8.835938 11.902344 8.835938 C 11.773438 8.835938 11.578125 8.679688 11.578125 8.242188 L 11.578125 4.136719 C 11.578125 3.609375 11.429688 3.375 11 3.375 L 7.785156 3.375 C 7.457031 3.375 7.265625 3.621094 7.265625 3.851562 C 7.265625 4.347656 8 4.464844 8.078125 5.871094 L 8.078125 8.921875 C 8.078125 9.589844 7.957031 9.714844 7.699219 9.714844 C 7.003906 9.714844 5.316406 7.132812 4.316406 4.179688 C 4.113281 3.605469 3.917969 3.375 3.390625 3.375 L 1.347656 3.375 C 0.765625 3.375 0.644531 3.652344 0.644531 3.960938 C 0.644531 4.511719 1.339844 7.234375 3.878906 10.835938 C 5.570312 13.292969 7.953125 14.625 10.117188 14.625 C 11.421875 14.625 11.578125 14.328125 11.578125 13.820312 C 11.578125 11.472656 11.460938 11.25 12.113281 11.25 C 12.417969 11.25 12.9375 11.40625 14.152344 12.589844 C 15.542969 13.996094 15.769531 14.625 16.546875 14.625 L 18.59375 14.625 C 19.175781 14.625 19.472656 14.328125 19.300781 13.746094 C 18.914062 12.519531 16.285156 9.996094 16.167969 9.828125 C 15.863281 9.433594 15.953125 9.257812 16.167969 8.90625 C 16.171875 8.902344 18.667969 5.34375 18.921875 4.136719 Z M 18.921875 4.136719 "/>
</g>
</svg>
