<?xml version="1.0" standalone="no"?>
<!DOCTYPE svg PUBLIC "-//W3C//DTD SVG 20010904//EN"
 "http://www.w3.org/TR/2001/REC-SVG-20010904/DTD/svg10.dtd">
<svg version="1.0" xmlns="http://www.w3.org/2000/svg"
 width="544.000000pt" height="544.000000pt" viewBox="0 0 544.000000 544.000000"
 preserveAspectRatio="xMidYMid meet">
<metadata>
Created by potrace 1.14, written by Peter Selinger 2001-2017
</metadata>
<g transform="translate(0.000000,544.000000) scale(0.100000,-0.100000)"
fill="#000000" stroke="none">
<path d="M1580 4611 c-95 -18 -186 -45 -270 -83 -44 -20 -160 -86 -170 -97 -3
-4 -24 -19 -47 -34 -46 -32 -170 -158 -199 -203 -10 -16 -21 -31 -25 -34 -21
-16 -104 -179 -130 -255 -38 -110 -69 -274 -69 -370 0 -125 39 -374 70 -450 5
-11 14 -38 20 -60 14 -48 101 -229 112 -233 4 -2 8 -9 8 -17 0 -13 124 -192
176 -255 49 -58 364 -372 444 -440 111 -97 152 -133 170 -150 9 -8 32 -28 52
-45 37 -32 132 -117 251 -225 139 -127 358 -354 429 -445 13 -16 30 -37 38
-46 8 -9 25 -29 37 -45 12 -16 35 -45 51 -65 15 -20 54 -75 86 -122 38 -56 63
-84 72 -80 8 3 14 11 14 18 0 10 9 24 50 72 5 7 10 15 10 18 0 11 134 192 200
269 195 228 396 429 660 662 24 21 51 46 60 54 20 18 151 134 199 175 69 59
378 371 417 420 21 27 47 59 57 69 55 62 176 266 216 366 7 19 19 49 26 65 99
232 111 595 29 843 -38 114 -124 268 -198 352 -92 104 -232 218 -318 258 -124
58 -156 71 -183 77 -17 4 -39 10 -50 15 -40 17 -204 40 -281 40 -141 0 -329
-44 -464 -108 -57 -26 -146 -78 -167 -97 -6 -5 -26 -21 -45 -35 -51 -38 -151
-142 -198 -205 l-42 -57 -16 22 c-46 61 -128 156 -162 186 -62 56 -137 114
-148 114 -6 0 -12 4 -14 8 -6 15 -164 90 -243 116 -177 56 -342 68 -515 37z
m435 -251 c91 -29 168 -64 230 -103 l50 -32 -90 -6 c-82 -6 -180 -27 -230 -49
-11 -5 -47 -21 -79 -35 -117 -52 -241 -155 -327 -271 -21 -29 -39 -57 -39 -63
0 -5 -3 -11 -7 -13 -5 -1 -18 -25 -31 -53 -13 -27 -27 -57 -32 -66 -4 -9 -19
-54 -32 -100 -33 -120 -33 -343 0 -474 25 -96 47 -168 62 -200 5 -11 19 -42
30 -70 12 -27 30 -68 41 -91 10 -22 19 -45 19 -51 0 -6 3 -13 8 -15 4 -1 17
-23 30 -48 13 -25 36 -67 53 -95 16 -27 32 -58 35 -67 4 -10 10 -18 15 -18 5
0 9 -5 9 -11 0 -5 25 -47 55 -92 31 -45 61 -90 68 -101 6 -10 26 -37 43 -60
17 -22 49 -68 71 -101 23 -33 49 -69 60 -80 10 -11 30 -36 43 -55 24 -34 45
-61 65 -84 6 -6 35 -42 64 -81 30 -38 59 -74 65 -80 6 -5 38 -44 71 -85 83
-104 98 -121 115 -140 9 -8 36 -45 60 -80 25 -36 48 -67 51 -70 4 -3 10 -16
14 -30 5 -17 -7 -7 -34 29 -23 30 -41 57 -41 60 0 4 -10 17 -23 31 -12 14 -51
61 -87 105 -35 44 -150 166 -255 270 -170 170 -223 219 -361 337 -21 18 -50
45 -65 59 -15 14 -42 38 -61 54 -133 111 -313 285 -398 384 -30 35 -65 75 -77
89 -13 14 -23 28 -23 33 0 4 -6 14 -12 21 -23 25 -58 77 -58 87 0 5 -4 11 -8
13 -12 5 -75 135 -101 208 -13 36 -27 74 -31 85 -44 103 -59 423 -27 550 19
76 20 76 68 180 72 154 200 300 329 374 76 44 151 80 181 86 18 4 40 11 49 16
61 35 364 34 475 -1z"/>
</g>
</svg>
